<mxfile host="app.diagrams.net" modified="2023-05-31T19:51:03.545Z" agent="Mozilla/5.0 (Windows NT 10.0; Win64; x64) AppleWebKit/537.36 (KHTML, like Gecko) Chrome/113.0.0.0 Safari/537.36" etag="2PQxewxRO1Jx-g0ZqH8r" version="21.3.5" type="device">
  <diagram name="Page-1" id="Fq-t5w6ZjCM_iln9L-bK">
    <mxGraphModel dx="1290" dy="541" grid="1" gridSize="10" guides="1" tooltips="1" connect="1" arrows="1" fold="1" page="1" pageScale="1" pageWidth="850" pageHeight="1100" math="0" shadow="0">
      <root>
        <mxCell id="0" />
        <mxCell id="1" parent="0" />
        <mxCell id="urUriDtrJ_7QA2fKdAOT-41" style="edgeStyle=orthogonalEdgeStyle;rounded=0;orthogonalLoop=1;jettySize=auto;html=1;exitX=0.5;exitY=1;exitDx=0;exitDy=0;entryX=0.5;entryY=0;entryDx=0;entryDy=0;" edge="1" parent="1" source="urUriDtrJ_7QA2fKdAOT-2" target="urUriDtrJ_7QA2fKdAOT-39">
          <mxGeometry relative="1" as="geometry" />
        </mxCell>
        <mxCell id="urUriDtrJ_7QA2fKdAOT-2" value="1" style="ellipse;whiteSpace=wrap;html=1;aspect=fixed;" vertex="1" parent="1">
          <mxGeometry x="160" y="40" width="40" height="40" as="geometry" />
        </mxCell>
        <mxCell id="urUriDtrJ_7QA2fKdAOT-44" style="edgeStyle=orthogonalEdgeStyle;rounded=0;orthogonalLoop=1;jettySize=auto;html=1;exitX=0.5;exitY=1;exitDx=0;exitDy=0;entryX=0.5;entryY=0;entryDx=0;entryDy=0;" edge="1" parent="1" source="urUriDtrJ_7QA2fKdAOT-39" target="urUriDtrJ_7QA2fKdAOT-43">
          <mxGeometry relative="1" as="geometry" />
        </mxCell>
        <mxCell id="urUriDtrJ_7QA2fKdAOT-108" style="edgeStyle=orthogonalEdgeStyle;rounded=0;orthogonalLoop=1;jettySize=auto;html=1;exitX=1;exitY=0.5;exitDx=0;exitDy=0;" edge="1" parent="1" source="urUriDtrJ_7QA2fKdAOT-39" target="urUriDtrJ_7QA2fKdAOT-105">
          <mxGeometry relative="1" as="geometry" />
        </mxCell>
        <mxCell id="urUriDtrJ_7QA2fKdAOT-39" value="2" style="ellipse;whiteSpace=wrap;html=1;aspect=fixed;" vertex="1" parent="1">
          <mxGeometry x="160" y="110" width="40" height="40" as="geometry" />
        </mxCell>
        <mxCell id="urUriDtrJ_7QA2fKdAOT-47" style="edgeStyle=orthogonalEdgeStyle;rounded=0;orthogonalLoop=1;jettySize=auto;html=1;exitX=1;exitY=0.5;exitDx=0;exitDy=0;entryX=0;entryY=0.5;entryDx=0;entryDy=0;" edge="1" parent="1" source="urUriDtrJ_7QA2fKdAOT-43" target="urUriDtrJ_7QA2fKdAOT-45">
          <mxGeometry relative="1" as="geometry" />
        </mxCell>
        <mxCell id="urUriDtrJ_7QA2fKdAOT-49" style="edgeStyle=orthogonalEdgeStyle;rounded=0;orthogonalLoop=1;jettySize=auto;html=1;exitX=0.5;exitY=1;exitDx=0;exitDy=0;entryX=0.5;entryY=0;entryDx=0;entryDy=0;" edge="1" parent="1" source="urUriDtrJ_7QA2fKdAOT-43" target="urUriDtrJ_7QA2fKdAOT-46">
          <mxGeometry relative="1" as="geometry" />
        </mxCell>
        <mxCell id="urUriDtrJ_7QA2fKdAOT-43" value="3" style="ellipse;whiteSpace=wrap;html=1;aspect=fixed;" vertex="1" parent="1">
          <mxGeometry x="160" y="180" width="40" height="40" as="geometry" />
        </mxCell>
        <mxCell id="urUriDtrJ_7QA2fKdAOT-48" style="edgeStyle=orthogonalEdgeStyle;rounded=0;orthogonalLoop=1;jettySize=auto;html=1;exitX=0.5;exitY=1;exitDx=0;exitDy=0;entryX=1;entryY=0.5;entryDx=0;entryDy=0;" edge="1" parent="1" source="urUriDtrJ_7QA2fKdAOT-45" target="urUriDtrJ_7QA2fKdAOT-46">
          <mxGeometry relative="1" as="geometry" />
        </mxCell>
        <mxCell id="urUriDtrJ_7QA2fKdAOT-45" value="4" style="ellipse;whiteSpace=wrap;html=1;aspect=fixed;" vertex="1" parent="1">
          <mxGeometry x="250" y="180" width="40" height="40" as="geometry" />
        </mxCell>
        <mxCell id="urUriDtrJ_7QA2fKdAOT-51" style="edgeStyle=orthogonalEdgeStyle;rounded=0;orthogonalLoop=1;jettySize=auto;html=1;exitX=0.5;exitY=1;exitDx=0;exitDy=0;entryX=0.5;entryY=0;entryDx=0;entryDy=0;" edge="1" parent="1" source="urUriDtrJ_7QA2fKdAOT-46" target="urUriDtrJ_7QA2fKdAOT-50">
          <mxGeometry relative="1" as="geometry" />
        </mxCell>
        <mxCell id="urUriDtrJ_7QA2fKdAOT-46" value="5" style="ellipse;whiteSpace=wrap;html=1;aspect=fixed;" vertex="1" parent="1">
          <mxGeometry x="160" y="260" width="40" height="40" as="geometry" />
        </mxCell>
        <mxCell id="urUriDtrJ_7QA2fKdAOT-53" style="edgeStyle=orthogonalEdgeStyle;rounded=0;orthogonalLoop=1;jettySize=auto;html=1;exitX=0.5;exitY=1;exitDx=0;exitDy=0;entryX=0.5;entryY=0;entryDx=0;entryDy=0;" edge="1" parent="1" source="urUriDtrJ_7QA2fKdAOT-50" target="urUriDtrJ_7QA2fKdAOT-52">
          <mxGeometry relative="1" as="geometry" />
        </mxCell>
        <mxCell id="urUriDtrJ_7QA2fKdAOT-63" style="edgeStyle=orthogonalEdgeStyle;rounded=0;orthogonalLoop=1;jettySize=auto;html=1;exitX=1;exitY=0.5;exitDx=0;exitDy=0;entryX=0.5;entryY=0;entryDx=0;entryDy=0;" edge="1" parent="1" source="urUriDtrJ_7QA2fKdAOT-50" target="urUriDtrJ_7QA2fKdAOT-62">
          <mxGeometry relative="1" as="geometry" />
        </mxCell>
        <mxCell id="urUriDtrJ_7QA2fKdAOT-50" value="6" style="ellipse;whiteSpace=wrap;html=1;aspect=fixed;" vertex="1" parent="1">
          <mxGeometry x="160" y="340" width="40" height="40" as="geometry" />
        </mxCell>
        <mxCell id="urUriDtrJ_7QA2fKdAOT-55" style="edgeStyle=orthogonalEdgeStyle;rounded=0;orthogonalLoop=1;jettySize=auto;html=1;exitX=0.5;exitY=1;exitDx=0;exitDy=0;entryX=0.5;entryY=0;entryDx=0;entryDy=0;" edge="1" parent="1" source="urUriDtrJ_7QA2fKdAOT-52" target="urUriDtrJ_7QA2fKdAOT-54">
          <mxGeometry relative="1" as="geometry" />
        </mxCell>
        <mxCell id="urUriDtrJ_7QA2fKdAOT-52" value="7" style="ellipse;whiteSpace=wrap;html=1;aspect=fixed;" vertex="1" parent="1">
          <mxGeometry x="160" y="420" width="40" height="40" as="geometry" />
        </mxCell>
        <mxCell id="urUriDtrJ_7QA2fKdAOT-84" style="edgeStyle=orthogonalEdgeStyle;rounded=0;orthogonalLoop=1;jettySize=auto;html=1;exitX=0.5;exitY=1;exitDx=0;exitDy=0;entryX=0.5;entryY=0;entryDx=0;entryDy=0;" edge="1" parent="1" source="urUriDtrJ_7QA2fKdAOT-54" target="urUriDtrJ_7QA2fKdAOT-56">
          <mxGeometry relative="1" as="geometry" />
        </mxCell>
        <mxCell id="urUriDtrJ_7QA2fKdAOT-54" value="8.1&lt;br&gt;" style="ellipse;whiteSpace=wrap;html=1;aspect=fixed;" vertex="1" parent="1">
          <mxGeometry x="160" y="490" width="40" height="40" as="geometry" />
        </mxCell>
        <mxCell id="urUriDtrJ_7QA2fKdAOT-60" style="edgeStyle=orthogonalEdgeStyle;rounded=0;orthogonalLoop=1;jettySize=auto;html=1;exitX=0.5;exitY=1;exitDx=0;exitDy=0;entryX=0.5;entryY=0;entryDx=0;entryDy=0;" edge="1" parent="1" source="urUriDtrJ_7QA2fKdAOT-56" target="urUriDtrJ_7QA2fKdAOT-59">
          <mxGeometry relative="1" as="geometry" />
        </mxCell>
        <mxCell id="urUriDtrJ_7QA2fKdAOT-64" style="edgeStyle=orthogonalEdgeStyle;rounded=0;orthogonalLoop=1;jettySize=auto;html=1;exitX=1;exitY=0.5;exitDx=0;exitDy=0;entryX=0;entryY=0.5;entryDx=0;entryDy=0;" edge="1" parent="1" source="urUriDtrJ_7QA2fKdAOT-56" target="urUriDtrJ_7QA2fKdAOT-62">
          <mxGeometry relative="1" as="geometry" />
        </mxCell>
        <mxCell id="urUriDtrJ_7QA2fKdAOT-56" value="8.2" style="ellipse;whiteSpace=wrap;html=1;aspect=fixed;" vertex="1" parent="1">
          <mxGeometry x="160" y="560" width="40" height="40" as="geometry" />
        </mxCell>
        <mxCell id="urUriDtrJ_7QA2fKdAOT-66" style="edgeStyle=orthogonalEdgeStyle;rounded=0;orthogonalLoop=1;jettySize=auto;html=1;exitX=0.5;exitY=1;exitDx=0;exitDy=0;entryX=0.5;entryY=0;entryDx=0;entryDy=0;" edge="1" parent="1" source="urUriDtrJ_7QA2fKdAOT-59" target="urUriDtrJ_7QA2fKdAOT-65">
          <mxGeometry relative="1" as="geometry" />
        </mxCell>
        <mxCell id="urUriDtrJ_7QA2fKdAOT-59" value="9" style="ellipse;whiteSpace=wrap;html=1;aspect=fixed;" vertex="1" parent="1">
          <mxGeometry x="240" y="640" width="40" height="40" as="geometry" />
        </mxCell>
        <mxCell id="urUriDtrJ_7QA2fKdAOT-70" style="edgeStyle=orthogonalEdgeStyle;rounded=0;orthogonalLoop=1;jettySize=auto;html=1;exitX=0.5;exitY=1;exitDx=0;exitDy=0;entryX=0.5;entryY=0;entryDx=0;entryDy=0;" edge="1" parent="1" source="urUriDtrJ_7QA2fKdAOT-62" target="urUriDtrJ_7QA2fKdAOT-69">
          <mxGeometry relative="1" as="geometry" />
        </mxCell>
        <mxCell id="urUriDtrJ_7QA2fKdAOT-62" value="14&lt;br&gt;" style="ellipse;whiteSpace=wrap;html=1;aspect=fixed;" vertex="1" parent="1">
          <mxGeometry x="350" y="500" width="40" height="40" as="geometry" />
        </mxCell>
        <mxCell id="urUriDtrJ_7QA2fKdAOT-68" style="edgeStyle=orthogonalEdgeStyle;rounded=0;orthogonalLoop=1;jettySize=auto;html=1;exitX=0;exitY=0.5;exitDx=0;exitDy=0;entryX=1;entryY=0.5;entryDx=0;entryDy=0;" edge="1" parent="1" source="urUriDtrJ_7QA2fKdAOT-65" target="urUriDtrJ_7QA2fKdAOT-67">
          <mxGeometry relative="1" as="geometry" />
        </mxCell>
        <mxCell id="urUriDtrJ_7QA2fKdAOT-74" style="edgeStyle=orthogonalEdgeStyle;rounded=0;orthogonalLoop=1;jettySize=auto;html=1;exitX=0.5;exitY=1;exitDx=0;exitDy=0;entryX=0.5;entryY=0;entryDx=0;entryDy=0;" edge="1" parent="1" source="urUriDtrJ_7QA2fKdAOT-65" target="urUriDtrJ_7QA2fKdAOT-73">
          <mxGeometry relative="1" as="geometry" />
        </mxCell>
        <mxCell id="urUriDtrJ_7QA2fKdAOT-65" value="10&lt;br&gt;" style="ellipse;whiteSpace=wrap;html=1;aspect=fixed;" vertex="1" parent="1">
          <mxGeometry x="240" y="720" width="40" height="40" as="geometry" />
        </mxCell>
        <mxCell id="urUriDtrJ_7QA2fKdAOT-75" style="edgeStyle=orthogonalEdgeStyle;rounded=0;orthogonalLoop=1;jettySize=auto;html=1;exitX=0.5;exitY=1;exitDx=0;exitDy=0;entryX=0;entryY=0.5;entryDx=0;entryDy=0;" edge="1" parent="1" source="urUriDtrJ_7QA2fKdAOT-67" target="urUriDtrJ_7QA2fKdAOT-73">
          <mxGeometry relative="1" as="geometry" />
        </mxCell>
        <mxCell id="urUriDtrJ_7QA2fKdAOT-67" value="11" style="ellipse;whiteSpace=wrap;html=1;aspect=fixed;" vertex="1" parent="1">
          <mxGeometry x="160" y="720" width="40" height="40" as="geometry" />
        </mxCell>
        <mxCell id="urUriDtrJ_7QA2fKdAOT-72" style="edgeStyle=orthogonalEdgeStyle;rounded=0;orthogonalLoop=1;jettySize=auto;html=1;exitX=0.5;exitY=1;exitDx=0;exitDy=0;entryX=0.5;entryY=0;entryDx=0;entryDy=0;" edge="1" parent="1" source="urUriDtrJ_7QA2fKdAOT-69" target="urUriDtrJ_7QA2fKdAOT-71">
          <mxGeometry relative="1" as="geometry" />
        </mxCell>
        <mxCell id="urUriDtrJ_7QA2fKdAOT-88" style="edgeStyle=orthogonalEdgeStyle;rounded=0;orthogonalLoop=1;jettySize=auto;html=1;exitX=1;exitY=0.5;exitDx=0;exitDy=0;" edge="1" parent="1" source="urUriDtrJ_7QA2fKdAOT-69" target="urUriDtrJ_7QA2fKdAOT-87">
          <mxGeometry relative="1" as="geometry" />
        </mxCell>
        <mxCell id="urUriDtrJ_7QA2fKdAOT-69" value="15" style="ellipse;whiteSpace=wrap;html=1;aspect=fixed;" vertex="1" parent="1">
          <mxGeometry x="350" y="570" width="40" height="40" as="geometry" />
        </mxCell>
        <mxCell id="urUriDtrJ_7QA2fKdAOT-109" style="edgeStyle=orthogonalEdgeStyle;rounded=0;orthogonalLoop=1;jettySize=auto;html=1;exitX=0.5;exitY=1;exitDx=0;exitDy=0;entryX=0;entryY=0;entryDx=0;entryDy=0;" edge="1" parent="1" source="urUriDtrJ_7QA2fKdAOT-71" target="urUriDtrJ_7QA2fKdAOT-105">
          <mxGeometry relative="1" as="geometry" />
        </mxCell>
        <mxCell id="urUriDtrJ_7QA2fKdAOT-71" value="16&lt;br&gt;" style="ellipse;whiteSpace=wrap;html=1;aspect=fixed;" vertex="1" parent="1">
          <mxGeometry x="350" y="650" width="40" height="40" as="geometry" />
        </mxCell>
        <mxCell id="urUriDtrJ_7QA2fKdAOT-78" style="edgeStyle=orthogonalEdgeStyle;rounded=0;orthogonalLoop=1;jettySize=auto;html=1;exitX=1;exitY=0.5;exitDx=0;exitDy=0;entryX=0;entryY=0.5;entryDx=0;entryDy=0;" edge="1" parent="1" source="urUriDtrJ_7QA2fKdAOT-73" target="urUriDtrJ_7QA2fKdAOT-77">
          <mxGeometry relative="1" as="geometry" />
        </mxCell>
        <mxCell id="urUriDtrJ_7QA2fKdAOT-80" style="edgeStyle=orthogonalEdgeStyle;rounded=0;orthogonalLoop=1;jettySize=auto;html=1;exitX=0.5;exitY=1;exitDx=0;exitDy=0;entryX=0.5;entryY=0;entryDx=0;entryDy=0;" edge="1" parent="1" source="urUriDtrJ_7QA2fKdAOT-73" target="urUriDtrJ_7QA2fKdAOT-79">
          <mxGeometry relative="1" as="geometry" />
        </mxCell>
        <mxCell id="urUriDtrJ_7QA2fKdAOT-73" value="12" style="ellipse;whiteSpace=wrap;html=1;aspect=fixed;" vertex="1" parent="1">
          <mxGeometry x="240" y="800" width="40" height="40" as="geometry" />
        </mxCell>
        <mxCell id="urUriDtrJ_7QA2fKdAOT-81" style="edgeStyle=orthogonalEdgeStyle;rounded=0;orthogonalLoop=1;jettySize=auto;html=1;exitX=0.5;exitY=1;exitDx=0;exitDy=0;entryX=1;entryY=0.5;entryDx=0;entryDy=0;" edge="1" parent="1" source="urUriDtrJ_7QA2fKdAOT-77" target="urUriDtrJ_7QA2fKdAOT-79">
          <mxGeometry relative="1" as="geometry" />
        </mxCell>
        <mxCell id="urUriDtrJ_7QA2fKdAOT-77" value="13" style="ellipse;whiteSpace=wrap;html=1;aspect=fixed;" vertex="1" parent="1">
          <mxGeometry x="320" y="800" width="40" height="40" as="geometry" />
        </mxCell>
        <mxCell id="urUriDtrJ_7QA2fKdAOT-85" style="edgeStyle=orthogonalEdgeStyle;rounded=0;orthogonalLoop=1;jettySize=auto;html=1;exitX=0;exitY=0.5;exitDx=0;exitDy=0;entryX=0;entryY=0.5;entryDx=0;entryDy=0;" edge="1" parent="1" source="urUriDtrJ_7QA2fKdAOT-79" target="urUriDtrJ_7QA2fKdAOT-56">
          <mxGeometry relative="1" as="geometry" />
        </mxCell>
        <mxCell id="urUriDtrJ_7QA2fKdAOT-79" value="8.3" style="ellipse;whiteSpace=wrap;html=1;aspect=fixed;" vertex="1" parent="1">
          <mxGeometry x="240" y="890" width="40" height="40" as="geometry" />
        </mxCell>
        <mxCell id="urUriDtrJ_7QA2fKdAOT-91" style="edgeStyle=orthogonalEdgeStyle;rounded=0;orthogonalLoop=1;jettySize=auto;html=1;exitX=1;exitY=0.5;exitDx=0;exitDy=0;entryX=0;entryY=0.5;entryDx=0;entryDy=0;" edge="1" parent="1" source="urUriDtrJ_7QA2fKdAOT-87" target="urUriDtrJ_7QA2fKdAOT-90">
          <mxGeometry relative="1" as="geometry" />
        </mxCell>
        <mxCell id="urUriDtrJ_7QA2fKdAOT-96" style="edgeStyle=orthogonalEdgeStyle;rounded=0;orthogonalLoop=1;jettySize=auto;html=1;exitX=0.5;exitY=1;exitDx=0;exitDy=0;entryX=0.5;entryY=0;entryDx=0;entryDy=0;" edge="1" parent="1" source="urUriDtrJ_7QA2fKdAOT-87" target="urUriDtrJ_7QA2fKdAOT-92">
          <mxGeometry relative="1" as="geometry" />
        </mxCell>
        <mxCell id="urUriDtrJ_7QA2fKdAOT-87" value="17" style="ellipse;whiteSpace=wrap;html=1;aspect=fixed;" vertex="1" parent="1">
          <mxGeometry x="450" y="570" width="40" height="40" as="geometry" />
        </mxCell>
        <mxCell id="urUriDtrJ_7QA2fKdAOT-106" style="edgeStyle=orthogonalEdgeStyle;rounded=0;orthogonalLoop=1;jettySize=auto;html=1;exitX=1;exitY=1;exitDx=0;exitDy=0;entryX=0;entryY=0.5;entryDx=0;entryDy=0;" edge="1" parent="1" source="urUriDtrJ_7QA2fKdAOT-90" target="urUriDtrJ_7QA2fKdAOT-105">
          <mxGeometry relative="1" as="geometry" />
        </mxCell>
        <mxCell id="urUriDtrJ_7QA2fKdAOT-90" value="21" style="ellipse;whiteSpace=wrap;html=1;aspect=fixed;" vertex="1" parent="1">
          <mxGeometry x="540" y="570" width="40" height="40" as="geometry" />
        </mxCell>
        <mxCell id="urUriDtrJ_7QA2fKdAOT-97" style="edgeStyle=orthogonalEdgeStyle;rounded=0;orthogonalLoop=1;jettySize=auto;html=1;exitX=0.5;exitY=1;exitDx=0;exitDy=0;entryX=0.5;entryY=0;entryDx=0;entryDy=0;" edge="1" parent="1" source="urUriDtrJ_7QA2fKdAOT-92" target="urUriDtrJ_7QA2fKdAOT-93">
          <mxGeometry relative="1" as="geometry" />
        </mxCell>
        <mxCell id="urUriDtrJ_7QA2fKdAOT-92" value="18.1" style="ellipse;whiteSpace=wrap;html=1;aspect=fixed;" vertex="1" parent="1">
          <mxGeometry x="450" y="650" width="40" height="40" as="geometry" />
        </mxCell>
        <mxCell id="urUriDtrJ_7QA2fKdAOT-98" style="edgeStyle=orthogonalEdgeStyle;rounded=0;orthogonalLoop=1;jettySize=auto;html=1;exitX=0.5;exitY=1;exitDx=0;exitDy=0;entryX=0.5;entryY=0;entryDx=0;entryDy=0;" edge="1" parent="1" source="urUriDtrJ_7QA2fKdAOT-93" target="urUriDtrJ_7QA2fKdAOT-94">
          <mxGeometry relative="1" as="geometry" />
        </mxCell>
        <mxCell id="urUriDtrJ_7QA2fKdAOT-104" style="edgeStyle=orthogonalEdgeStyle;rounded=0;orthogonalLoop=1;jettySize=auto;html=1;exitX=1;exitY=0.5;exitDx=0;exitDy=0;entryX=0.5;entryY=1;entryDx=0;entryDy=0;" edge="1" parent="1" source="urUriDtrJ_7QA2fKdAOT-93" target="urUriDtrJ_7QA2fKdAOT-90">
          <mxGeometry relative="1" as="geometry" />
        </mxCell>
        <mxCell id="urUriDtrJ_7QA2fKdAOT-93" value="18.2" style="ellipse;whiteSpace=wrap;html=1;aspect=fixed;" vertex="1" parent="1">
          <mxGeometry x="450" y="730" width="40" height="40" as="geometry" />
        </mxCell>
        <mxCell id="urUriDtrJ_7QA2fKdAOT-99" style="edgeStyle=orthogonalEdgeStyle;rounded=0;orthogonalLoop=1;jettySize=auto;html=1;exitX=0.5;exitY=1;exitDx=0;exitDy=0;entryX=0.5;entryY=0;entryDx=0;entryDy=0;" edge="1" parent="1" source="urUriDtrJ_7QA2fKdAOT-94" target="urUriDtrJ_7QA2fKdAOT-95">
          <mxGeometry relative="1" as="geometry" />
        </mxCell>
        <mxCell id="urUriDtrJ_7QA2fKdAOT-101" style="edgeStyle=orthogonalEdgeStyle;rounded=0;orthogonalLoop=1;jettySize=auto;html=1;exitX=1;exitY=0.5;exitDx=0;exitDy=0;entryX=0.5;entryY=0;entryDx=0;entryDy=0;" edge="1" parent="1" source="urUriDtrJ_7QA2fKdAOT-94" target="urUriDtrJ_7QA2fKdAOT-100">
          <mxGeometry relative="1" as="geometry" />
        </mxCell>
        <mxCell id="urUriDtrJ_7QA2fKdAOT-94" value="19&lt;br&gt;" style="ellipse;whiteSpace=wrap;html=1;aspect=fixed;" vertex="1" parent="1">
          <mxGeometry x="450" y="810" width="40" height="40" as="geometry" />
        </mxCell>
        <mxCell id="urUriDtrJ_7QA2fKdAOT-103" style="edgeStyle=orthogonalEdgeStyle;rounded=0;orthogonalLoop=1;jettySize=auto;html=1;exitX=0;exitY=0.5;exitDx=0;exitDy=0;entryX=0;entryY=0.5;entryDx=0;entryDy=0;" edge="1" parent="1" source="urUriDtrJ_7QA2fKdAOT-95" target="urUriDtrJ_7QA2fKdAOT-93">
          <mxGeometry relative="1" as="geometry" />
        </mxCell>
        <mxCell id="urUriDtrJ_7QA2fKdAOT-95" value="18.3" style="ellipse;whiteSpace=wrap;html=1;aspect=fixed;" vertex="1" parent="1">
          <mxGeometry x="450" y="890" width="40" height="40" as="geometry" />
        </mxCell>
        <mxCell id="urUriDtrJ_7QA2fKdAOT-102" style="edgeStyle=orthogonalEdgeStyle;rounded=0;orthogonalLoop=1;jettySize=auto;html=1;exitX=0.5;exitY=1;exitDx=0;exitDy=0;entryX=1;entryY=0.5;entryDx=0;entryDy=0;" edge="1" parent="1" source="urUriDtrJ_7QA2fKdAOT-100" target="urUriDtrJ_7QA2fKdAOT-95">
          <mxGeometry relative="1" as="geometry" />
        </mxCell>
        <mxCell id="urUriDtrJ_7QA2fKdAOT-107" style="edgeStyle=orthogonalEdgeStyle;rounded=0;orthogonalLoop=1;jettySize=auto;html=1;exitX=1;exitY=0.5;exitDx=0;exitDy=0;entryX=0;entryY=1;entryDx=0;entryDy=0;" edge="1" parent="1" source="urUriDtrJ_7QA2fKdAOT-100" target="urUriDtrJ_7QA2fKdAOT-105">
          <mxGeometry relative="1" as="geometry" />
        </mxCell>
        <mxCell id="urUriDtrJ_7QA2fKdAOT-100" value="20" style="ellipse;whiteSpace=wrap;html=1;aspect=fixed;" vertex="1" parent="1">
          <mxGeometry x="530" y="850" width="40" height="40" as="geometry" />
        </mxCell>
        <mxCell id="urUriDtrJ_7QA2fKdAOT-105" value="22" style="ellipse;whiteSpace=wrap;html=1;aspect=fixed;" vertex="1" parent="1">
          <mxGeometry x="640" y="850" width="40" height="40" as="geometry" />
        </mxCell>
      </root>
    </mxGraphModel>
  </diagram>
</mxfile>
